<svg xmlns="http://www.w3.org/2000/svg" viewBox="0 0 512 512" style="height: 512px; width: 512px;">
    <g class="" transform="translate(0,0)" style="">
        <g>
            <path
                d="M450 150a16 16 0 1 0 -32 0 16 16 0 1 0 32 0z"
                class="" fill="red" fill-opacity="1" stroke="black" stroke-opacity="1"
                stroke-width="6"></path>
            <path
                d="M139.3 20.25L123.2 24.75C132.6 58.25 145.5 75.85 160.2 85.05C175.1 94.45 192.3 95.25 211.1 93.55C236.1 91.25 264.3 83.95 293.1 94.65C300.9 98.15 309.1 102.6 317.8 108.5C322.4 107.1 326.4 105.3 330.4 104C330.4 104 333.6 93.75 328.4 80.65C323.9 69.15 312.7 54.65 284.4 44.45L278.8 60.05C296.2 66.45 305.6 74.35 310.4 81.85C311.1 82.95 311.6 83.95 312.1 84.95C308.3 82.95 304.4 81.15 300.6 79.75C272.5 66.75 250 65.95 232 63.95C222.4 62.95 214.3 61.75 207.6 56.95C200.9 52.05 195.9 43.55 191.6 28.75L175.6 33.45C181.3 53.05 188.9 63.85 197.8 70.35C201.8 73.25 206.1 75.35 210.7 76.85C194.9 77.7 180 77.52 169 70.95C156.8 63.25 147.1 48.05 139.3 20.25Z"
                class="selected" fill="#000000" fill-opacity="1" stroke="#000000" stroke-opacity="1"
                stroke-width="8"></path>
            <path
                d="M228.8 23.85C227.9 35.05 229.9 44.15 233.2 51.55C240.9 52.51 247.6 52.65 254.6 53.85C249.2 47.85 244.4 38.65 245.4 25.05Z"
                class="" fill="#000000" fill-opacity="1" stroke="#000000" stroke-opacity="1"
                stroke-width="8"></path>
            <path
                d="M349.1 37.35L338.2 49.85C346.4 57.05 348.7 65.65 348.7 72.95C344.3 69.03 340.3 66.42 335.6 64.05C342.8 72.47 343.8 87.41 344.3 95.45L359.8 97.15C359.8 97.15 377.4 61.95 349.1 37.35Z"
                class="" fill="#000000" fill-opacity="1" stroke="#000000" stroke-opacity="1"
                stroke-width="8"></path>
            <path
                d="M268.4 106.7C250.9 108.7 241.6 104.1 236 120.5C236 120.5 254.8 148.4 304.9 147.7C302.1 159.1 303.4 167.5 303.4 177.6C303.4 211.2 276.4 240.5 216.9 240.5C186.7 240.5 150 245.9 122 261C102.1 271.7 86.53 287.2 79.64 308.7L87.45 319.6L102.4 319.8L102.4 381.5L84.16 409.8L89.4 491.8L106.7 491.8L108.2 425.8C116.8 420.8 136.5 407.8 153.3 387.8C176.1 360.9 193.6 321.8 173 273.4L188.4 266.9C205.3 306.6 199.4 341 184.6 368.7C212.9 367.8 237.2 366 257.8 362.6L253.1 306.3L269.7 304.9L285.5 491.8L302.7 491.8L305.6 370.1C319.3 364.3 350.5 343 365.1 269C366.9 260 367.9 252.4 368.4 245.9C370.7 229.4 372 210.8 372.4 189.6L347.9 181.9L423.2 181.9L430.5 165.4C423.4 165.7 414.9 162 414.9 162L416.6 154L432.4 154L346.9 109.7C337.4 113.3 327.4 118 320.4 123.7C314.8 119.7 295.4 107.2 268.4 106.7Z"
                class="" fill="#b57204" fill-opacity="1" stroke="#000000" stroke-opacity="1"
                stroke-width="8"></path>
            <path
                d="M363.9 333.3C354.2 351.4 343.8 364.9 334.8 374.5L381.9 395.3L361 442.8L376 449.8L409.4 385L365.1 347.6C364.7 345.3 364.2 340.8 363.9 333.3Z"
                class="" fill="#8b572a" fill-opacity="1" stroke="#000000" stroke-opacity="1"
                stroke-width="8"></path>
            <path
                d="M210.1 384.1C198.8 384.8 186.8 385.3 174 385.5C165.3 397 155.3 408.1 144.9 416.7L153.6 491.7L170.7 491.7L170.7 426.7C178 420.7 195.6 405.4 210.1 384.1Z"
                class="" fill="#8b572a" fill-opacity="1" stroke="#000000" stroke-opacity="1"
                stroke-width="8"></path>
        </g>
    </g>
</svg>