<svg xmlns="http://www.w3.org/2000/svg" viewBox="0 0 512 512" style="height: 512px; width: 512px;"><defs><radialGradient id="lorc-rock-gradient-0"><stop offset="0%" stop-color="#b57204" stop-opacity="1"></stop><stop offset="100%" stop-color="#b57204" stop-opacity="1"></stop></radialGradient></defs><polygon points="481.4,329.24,356.32,394.07,256,493,155.68,394.07,30.6,329.24,93.69,203.26,116.69,64.26,256,85.33,395.31,64.26,418.31,203.26" fill="url(#pattern)" stroke="#973e3e" stroke-opacity="1" stroke-width="19"></polygon><svg><defs><linearGradient id="a" x1="240" y1="16" x2="240" y2="496" gradientUnits="userSpaceOnUse"><stop offset="0" stop-color="#7d787a"></stop><stop offset="1" stop-color="#423e44"></stop></linearGradient></defs><path fill="url(#a)" fill-rule="evenodd" d="M0 0h512v512H0z"></path><path d="M8 0l30.63 37.93 259.87-9.84 178.4 11.95L504 0H204.7l-10.2 8.779L159.4 0z" overflow="visible" fill="#fff" fill-opacity=".269" fill-rule="evenodd"></path><path d="M2.809 511.6l42.841-40.7L184 468.5l27.4 26.6 10.5-23.8 250.1 7 6.7 18.3 29.3 15.7z" overflow="visible" fill-opacity=".24" fill-rule="evenodd"></path><path d="M511.7 16.15l-39.1 50.39-2 324.26 10.1 19.9-7.3 53.5 20.9 9.1 18 23.8L512 215l-15.5-28.8 15.4-11.4z" overflow="visible" fill-opacity=".19" fill-rule="evenodd"></path><path d="M0 15.18L35.12 61.1l-8.61 93.8 10.19 13.9-5.13 97.4-14.85 18.9 12.62 23.3 7.5 83.9v57.4L-.743 496.5z" overflow="visible" fill="#fff" fill-opacity=".099" fill-rule="evenodd"></path><path d="M51.56 56.62L43.16 141l10.74 22.4-8.99 103.7-10.46 17.5 7.05 21.8 10.61 116.8 21.9 32.6 109.29.5 34.2-12.4 6.5 12.5 235.3 2.3 6.9-33.9-13.7-12.6 6.2-20.4-6-331.94-150-14.62-29.5 1.34-1.4 25.57-60.4-22.77z" overflow="visible" fill="#797677" fill-opacity=".434" fill-rule="evenodd"></path></svg><g class="" transform="translate(0,0)" style=""><path d="M228.813 23L68.75 72.28 39.5 182.095l47.53-21.22 10.44-4.655 2.5 11.155 8.75 39.125 6.405 28.53-21.75-19.53-15.72-14.125-28.218 32.344 140.657 136 9.656-40.69 7.53-31.874 10.407 31.063 54.72 163.592L432.343 465.5l45.75-202.938-84.563-148.718L228.814 23zm-57.688 49.875l-27.813 39.906-3.25 73.44-27.187-88.94 58.25-24.405zm17.844 93.406l113.124 155.25L407 355.407l-107.375-.844-110.656-128v-60.28zM79.312 330.25l140.125 153.125-5.563-65.875-134.563-87.25z" fill="#cd7e44" fill-opacity="1"></path></g><g class="" transform="translate(256,256)" style=""><g><circle cx="128" cy="128" r="128" fill="#b02d2d" fill-opacity="1"></circle><circle stroke="#000000" stroke-opacity="1" fill="#b02d2d" fill-opacity="1" stroke-width="18" cx="128" cy="128" r="101"></circle><path fill="#000000" fill-opacity="1" d="M89.11 76.38L76.38 89.11 115.272 128l-38.89 38.89 12.728 12.73L128 140.728l38.89 38.89 12.73-12.728L140.728 128l38.89-38.89-12.728-12.73L128 115.272z"></path></g></g></svg>