<svg xmlns="http://www.w3.org/2000/svg" viewBox="0 0 512 512" style="height: 512px; width: 512px;"><g class="" transform="translate(0,0)" style=""><g><path d="M69.74 20.72C66.59 31.44 71.5 43.12 74.62 53.81C62.99 51.5 51.58 46.29 40.54 49.2C28.61 53.07 65.52 72.16 68.1 73.7C60.3 81.39 51.54 87.07 46.91 96.51C58.39 100.2 73.22 97.23 83.36 95.33C86.55 103.6 94.16 125.2 103.5 121.6C115.2 117 119.3 97.72 122.6 87.08C131.9 85.38 149.8 88.05 150 79.65C150.2 69.16 136.7 61.15 130.1 54.67C134 46.83 149.4 29.81 141.8 24.74C128.1 20.46 114 32.5 102.9 41.16C96.46 32.25 74 12.96 69.74 20.72Z" class="" fill="#ffffff" fill-opacity="1" stroke="#000000" stroke-opacity="1" stroke-width="8"></path><path d="M159.3 95.85C152.1 100.9 144.1 103.1 135.9 104.3C133.7 110.4 131.1 114.9 128.5 120C156.9 212.3 172.7 298 136.6 406.1C152 406.7 165.8 410.9 179.8 416.7C193.2 407.2 211 394.8 225.8 391.9C248.9 390 268.7 394.8 290 401C303.2 388.9 323.3 375.3 339.1 373.8C355.4 373.9 369.5 378.2 383.8 382.6C390.2 379.3 394 373.1 398.8 368.4C340.4 246.2 273.4 154.8 159.3 95.85Z" class="selected" fill="#ff0000" stroke="#000000" stroke-opacity="1" stroke-width="8" fill-opacity="1"></path><path d="M417.6 377.6C406.6 383.9 399.8 394.7 393.6 404.6C377.9 400.3 356.7 390.9 340.6 391.7C321.7 395.8 307 408.9 295 421.5C284.5 418.2 274.4 415.3 266 413.3C252.9 410.3 236.9 408.2 229 409.7C210.9 415.3 195.9 426.9 182.3 437.6C168 431.4 153.8 425.1 138.8 424.1C133.7 423.9 130.1 424.8 128.6 425.8C120 431.7 108.9 446.7 104.4 460.6C101 471 101 484 110 488.8C124.5 491.1 137.8 482.8 148.9 475.7C160.1 481.2 179.8 493.4 192 493.1C209.3 488.5 224.9 479.4 239.1 470.9C248.4 479.6 265.8 493.4 278.4 492.6C296.3 487.4 307.5 471.1 316.1 457C333.1 462.8 369.6 471.1 383.6 460.9C393.4 453.3 386.5 441 383.8 432.4C396.5 437.1 410.6 441.6 421.7 443.2C440.8 443.8 459.5 445.2 441.3 424.9L428.6 411.7C442.2 410.2 461.6 408.3 471.2 402.2C476.1 399.2 473.2 393.7 470.8 391.1C468.1 388.2 463 385 456.8 382.6C443.6 378.8 430.5 375.6 417.6 377.6Z" class="" fill="#ffffff" fill-opacity="1" stroke="#000000" stroke-opacity="1" stroke-width="8"></path></g></g></svg>